<?xml version="1.0" encoding="UTF-8" standalone="no"?>
<!DOCTYPE svg PUBLIC "-//W3C//DTD SVG 1.1//EN"
 "http://www.w3.org/Graphics/SVG/1.1/DTD/svg11.dtd">
<!-- Generated by graphviz version 2.47.0 (20210316.0004)
 -->
<!-- Title: dependencies Pages: 1 -->
<svg width="917pt" height="211pt"
 viewBox="0.00 0.00 917.00 211.00" xmlns="http://www.w3.org/2000/svg" xmlns:xlink="http://www.w3.org/1999/xlink">
<g id="graph0" class="graph" transform="scale(1 1) rotate(0) translate(4 207)">
<title>dependencies</title>
<polygon fill="white" stroke="transparent" points="-4,4 -4,-207 913,-207 913,4 -4,4"/>
<text text-anchor="start" x="433.51" y="-42.4" font-family="sans-serif" font-weight="bold" font-size="14.00">Legend</text>
<polygon fill="#ffffb3" stroke="transparent" points="220.5,-10 220.5,-30 240.5,-30 240.5,-10 220.5,-10"/>
<text text-anchor="start" x="244.13" y="-15.4" font-family="sans-serif" font-size="14.00"> &#160;Declarations</text>
<polygon fill="#8dd3c7" stroke="transparent" points="333.5,-10 333.5,-30 353.5,-30 353.5,-10 333.5,-10"/>
<text text-anchor="start" x="357.23" y="-15.4" font-family="sans-serif" font-size="14.00"> &#160;Module</text>
<polygon fill="#80b1d3" stroke="transparent" points="419.5,-10 419.5,-30 439.5,-30 439.5,-10 419.5,-10"/>
<text text-anchor="start" x="443.28" y="-15.4" font-family="sans-serif" font-size="14.00"> &#160;Bootstrap</text>
<polygon fill="#fdb462" stroke="transparent" points="516.5,-10 516.5,-30 536.5,-30 536.5,-10 516.5,-10"/>
<text text-anchor="start" x="540.17" y="-15.4" font-family="sans-serif" font-size="14.00"> &#160;Providers</text>
<polygon fill="#fb8072" stroke="transparent" points="612.5,-10 612.5,-30 632.5,-30 632.5,-10 612.5,-10"/>
<text text-anchor="start" x="636.23" y="-15.4" font-family="sans-serif" font-size="14.00"> &#160;Exports</text>
<g id="clust1" class="cluster">
<title>cluster_UserModule</title>
<polygon fill="none" stroke="black" stroke-dasharray="1,5" points="8,-70 8,-195 901,-195 901,-70 8,-70"/>
</g>
<g id="clust2" class="cluster">
<title>cluster_UserModule_declarations</title>
<polygon fill="none" stroke="black" points="172,-78 172,-130 893,-130 893,-78 172,-78"/>
</g>
<g id="clust7" class="cluster">
<title>cluster_UserModule_imports</title>
<polygon fill="none" stroke="black" points="16,-78 16,-130 164,-130 164,-78 16,-78"/>
</g>
<!-- AddBookPendingComponent -->
<g id="node1" class="node">
<title>AddBookPendingComponent</title>
<polygon fill="#ffffb3" stroke="black" points="884.66,-122 703.34,-122 703.34,-86 884.66,-86 884.66,-122"/>
<text text-anchor="middle" x="794" y="-99.8" font-family="Times,serif" font-size="14.00">AddBookPendingComponent</text>
</g>
<!-- UserModule -->
<g id="node5" class="node">
<title>UserModule</title>
<polygon fill="#8dd3c7" stroke="black" points="442.98,-187 439.98,-191 418.98,-191 415.98,-187 357.02,-187 357.02,-151 442.98,-151 442.98,-187"/>
<text text-anchor="middle" x="400" y="-164.8" font-family="Times,serif" font-size="14.00">UserModule</text>
</g>
<!-- AddBookPendingComponent&#45;&gt;UserModule -->
<g id="edge1" class="edge">
<title>AddBookPendingComponent&#45;&gt;UserModule</title>
<path fill="none" stroke="black" d="M794,-122.28C794,-143.32 794,-175 794,-175 794,-175 453.29,-175 453.29,-175"/>
<polygon fill="black" stroke="black" points="453.29,-171.5 443.29,-175 453.29,-178.5 453.29,-171.5"/>
</g>
<!-- AddBookToListComponent -->
<g id="node2" class="node">
<title>AddBookToListComponent</title>
<polygon fill="#ffffb3" stroke="black" points="685.61,-122 512.39,-122 512.39,-86 685.61,-86 685.61,-122"/>
<text text-anchor="middle" x="599" y="-99.8" font-family="Times,serif" font-size="14.00">AddBookToListComponent</text>
</g>
<!-- AddBookToListComponent&#45;&gt;UserModule -->
<g id="edge2" class="edge">
<title>AddBookToListComponent&#45;&gt;UserModule</title>
<path fill="none" stroke="black" d="M599,-122.02C599,-139.37 599,-163 599,-163 599,-163 453.18,-163 453.18,-163"/>
<polygon fill="black" stroke="black" points="453.18,-159.5 443.18,-163 453.18,-166.5 453.18,-159.5"/>
</g>
<!-- ChangeBookStatusComponent -->
<g id="node3" class="node">
<title>ChangeBookStatusComponent</title>
<polygon fill="#ffffb3" stroke="black" points="494.16,-122 305.84,-122 305.84,-86 494.16,-86 494.16,-122"/>
<text text-anchor="middle" x="400" y="-99.8" font-family="Times,serif" font-size="14.00">ChangeBookStatusComponent</text>
</g>
<!-- ChangeBookStatusComponent&#45;&gt;UserModule -->
<g id="edge3" class="edge">
<title>ChangeBookStatusComponent&#45;&gt;UserModule</title>
<path fill="none" stroke="black" d="M400,-122.11C400,-122.11 400,-140.99 400,-140.99"/>
<polygon fill="black" stroke="black" points="396.5,-140.99 400,-150.99 403.5,-140.99 396.5,-140.99"/>
</g>
<!-- UserComponent -->
<g id="node4" class="node">
<title>UserComponent</title>
<polygon fill="#ffffb3" stroke="black" points="287.76,-122 180.24,-122 180.24,-86 287.76,-86 287.76,-122"/>
<text text-anchor="middle" x="234" y="-99.8" font-family="Times,serif" font-size="14.00">UserComponent</text>
</g>
<!-- UserComponent&#45;&gt;UserModule -->
<g id="edge4" class="edge">
<title>UserComponent&#45;&gt;UserModule</title>
<path fill="none" stroke="black" d="M234,-122.02C234,-139.37 234,-163 234,-163 234,-163 346.82,-163 346.82,-163"/>
<polygon fill="black" stroke="black" points="346.82,-166.5 356.82,-163 346.82,-159.5 346.82,-166.5"/>
</g>
<!-- UserRoutingModule -->
<g id="node6" class="node">
<title>UserRoutingModule</title>
<polygon fill="#8dd3c7" stroke="black" points="155.59,-122 152.59,-126 131.59,-126 128.59,-122 24.41,-122 24.41,-86 155.59,-86 155.59,-122"/>
<text text-anchor="middle" x="90" y="-99.8" font-family="Times,serif" font-size="14.00">UserRoutingModule</text>
</g>
<!-- UserRoutingModule&#45;&gt;UserModule -->
<g id="edge5" class="edge">
<title>UserRoutingModule&#45;&gt;UserModule</title>
<path fill="none" stroke="black" d="M90,-122.28C90,-143.32 90,-175 90,-175 90,-175 346.9,-175 346.9,-175"/>
<polygon fill="black" stroke="black" points="346.9,-178.5 356.9,-175 346.9,-171.5 346.9,-178.5"/>
</g>
</g>
</svg>
