<?xml version="1.0" encoding="UTF-8" standalone="no"?>
<!DOCTYPE svg PUBLIC "-//W3C//DTD SVG 1.1//EN"
 "http://www.w3.org/Graphics/SVG/1.1/DTD/svg11.dtd">
<!-- Generated by graphviz version 2.47.0 (20210316.0004)
 -->
<!-- Title: dependencies Pages: 1 -->
<svg width="710pt" height="211pt"
 viewBox="0.00 0.00 710.00 211.00" xmlns="http://www.w3.org/2000/svg" xmlns:xlink="http://www.w3.org/1999/xlink">
<g id="graph0" class="graph" transform="scale(1 1) rotate(0) translate(4 207)">
<title>dependencies</title>
<polygon fill="white" stroke="transparent" points="-4,4 -4,-207 706,-207 706,4 -4,4"/>
<text text-anchor="start" x="330.01" y="-42.4" font-family="sans-serif" font-weight="bold" font-size="14.00">Legend</text>
<polygon fill="#ffffb3" stroke="transparent" points="117,-10 117,-30 137,-30 137,-10 117,-10"/>
<text text-anchor="start" x="140.63" y="-15.4" font-family="sans-serif" font-size="14.00"> &#160;Declarations</text>
<polygon fill="#8dd3c7" stroke="transparent" points="230,-10 230,-30 250,-30 250,-10 230,-10"/>
<text text-anchor="start" x="253.73" y="-15.4" font-family="sans-serif" font-size="14.00"> &#160;Module</text>
<polygon fill="#80b1d3" stroke="transparent" points="316,-10 316,-30 336,-30 336,-10 316,-10"/>
<text text-anchor="start" x="339.78" y="-15.4" font-family="sans-serif" font-size="14.00"> &#160;Bootstrap</text>
<polygon fill="#fdb462" stroke="transparent" points="413,-10 413,-30 433,-30 433,-10 413,-10"/>
<text text-anchor="start" x="436.67" y="-15.4" font-family="sans-serif" font-size="14.00"> &#160;Providers</text>
<polygon fill="#fb8072" stroke="transparent" points="509,-10 509,-30 529,-30 529,-10 509,-10"/>
<text text-anchor="start" x="532.73" y="-15.4" font-family="sans-serif" font-size="14.00"> &#160;Exports</text>
<g id="clust1" class="cluster">
<title>cluster_AuthorModule</title>
<polygon fill="none" stroke="black" stroke-dasharray="1,5" points="8,-70 8,-195 694,-195 694,-70 8,-70"/>
</g>
<g id="clust6" class="cluster">
<title>cluster_AuthorModule_imports</title>
<polygon fill="none" stroke="black" points="526,-78 526,-130 686,-130 686,-78 526,-78"/>
</g>
<g id="clust2" class="cluster">
<title>cluster_AuthorModule_declarations</title>
<polygon fill="none" stroke="black" points="16,-78 16,-130 518,-130 518,-78 16,-78"/>
</g>
<!-- AuthorComponent -->
<g id="node1" class="node">
<title>AuthorComponent</title>
<polygon fill="#ffffb3" stroke="black" points="510.49,-122 389.51,-122 389.51,-86 510.49,-86 510.49,-122"/>
<text text-anchor="middle" x="450" y="-99.8" font-family="Times,serif" font-size="14.00">AuthorComponent</text>
</g>
<!-- AuthorModule -->
<g id="node4" class="node">
<title>AuthorModule</title>
<polygon fill="#8dd3c7" stroke="black" points="421.71,-187 418.71,-191 397.71,-191 394.71,-187 322.29,-187 322.29,-151 421.71,-151 421.71,-187"/>
<text text-anchor="middle" x="372" y="-164.8" font-family="Times,serif" font-size="14.00">AuthorModule</text>
</g>
<!-- AuthorComponent&#45;&gt;AuthorModule -->
<g id="edge1" class="edge">
<title>AuthorComponent&#45;&gt;AuthorModule</title>
<path fill="none" stroke="black" d="M405.55,-122.11C405.55,-122.11 405.55,-140.99 405.55,-140.99"/>
<polygon fill="black" stroke="black" points="402.05,-140.99 405.55,-150.99 409.05,-140.99 402.05,-140.99"/>
</g>
<!-- AuthorHomeComponent -->
<g id="node2" class="node">
<title>AuthorHomeComponent</title>
<polygon fill="#ffffb3" stroke="black" points="371.7,-122 216.3,-122 216.3,-86 371.7,-86 371.7,-122"/>
<text text-anchor="middle" x="294" y="-99.8" font-family="Times,serif" font-size="14.00">AuthorHomeComponent</text>
</g>
<!-- AuthorHomeComponent&#45;&gt;AuthorModule -->
<g id="edge2" class="edge">
<title>AuthorHomeComponent&#45;&gt;AuthorModule</title>
<path fill="none" stroke="black" d="M347,-122.11C347,-122.11 347,-140.99 347,-140.99"/>
<polygon fill="black" stroke="black" points="343.5,-140.99 347,-150.99 350.5,-140.99 343.5,-140.99"/>
</g>
<!-- SetPersonalDataComponent -->
<g id="node3" class="node">
<title>SetPersonalDataComponent</title>
<polygon fill="#ffffb3" stroke="black" points="197.85,-122 24.15,-122 24.15,-86 197.85,-86 197.85,-122"/>
<text text-anchor="middle" x="111" y="-99.8" font-family="Times,serif" font-size="14.00">SetPersonalDataComponent</text>
</g>
<!-- SetPersonalDataComponent&#45;&gt;AuthorModule -->
<g id="edge3" class="edge">
<title>SetPersonalDataComponent&#45;&gt;AuthorModule</title>
<path fill="none" stroke="black" d="M111,-122.11C111,-141.34 111,-169 111,-169 111,-169 312.29,-169 312.29,-169"/>
<polygon fill="black" stroke="black" points="312.29,-172.5 322.29,-169 312.29,-165.5 312.29,-172.5"/>
</g>
<!-- AuthorRoutingModule -->
<g id="node5" class="node">
<title>AuthorRoutingModule</title>
<polygon fill="#8dd3c7" stroke="black" points="678.33,-122 675.33,-126 654.33,-126 651.33,-122 533.67,-122 533.67,-86 678.33,-86 678.33,-122"/>
<text text-anchor="middle" x="606" y="-99.8" font-family="Times,serif" font-size="14.00">AuthorRoutingModule</text>
</g>
<!-- AuthorRoutingModule&#45;&gt;AuthorModule -->
<g id="edge4" class="edge">
<title>AuthorRoutingModule&#45;&gt;AuthorModule</title>
<path fill="none" stroke="black" d="M606,-122.11C606,-141.34 606,-169 606,-169 606,-169 431.63,-169 431.63,-169"/>
<polygon fill="black" stroke="black" points="431.63,-165.5 421.63,-169 431.63,-172.5 431.63,-165.5"/>
</g>
</g>
</svg>
