<?xml version="1.0" encoding="UTF-8" standalone="no"?>
<!DOCTYPE svg PUBLIC "-//W3C//DTD SVG 1.1//EN"
 "http://www.w3.org/Graphics/SVG/1.1/DTD/svg11.dtd">
<!-- Generated by graphviz version 2.47.0 (20210316.0004)
 -->
<!-- Title: dependencies Pages: 1 -->
<svg width="2067pt" height="211pt"
 viewBox="0.00 0.00 2067.00 211.00" xmlns="http://www.w3.org/2000/svg" xmlns:xlink="http://www.w3.org/1999/xlink">
<g id="graph0" class="graph" transform="scale(1 1) rotate(0) translate(4 207)">
<title>dependencies</title>
<polygon fill="white" stroke="transparent" points="-4,4 -4,-207 2063,-207 2063,4 -4,4"/>
<text text-anchor="start" x="1008.51" y="-42.4" font-family="sans-serif" font-weight="bold" font-size="14.00">Legend</text>
<polygon fill="#ffffb3" stroke="transparent" points="795.5,-10 795.5,-30 815.5,-30 815.5,-10 795.5,-10"/>
<text text-anchor="start" x="819.13" y="-15.4" font-family="sans-serif" font-size="14.00"> &#160;Declarations</text>
<polygon fill="#8dd3c7" stroke="transparent" points="908.5,-10 908.5,-30 928.5,-30 928.5,-10 908.5,-10"/>
<text text-anchor="start" x="932.23" y="-15.4" font-family="sans-serif" font-size="14.00"> &#160;Module</text>
<polygon fill="#80b1d3" stroke="transparent" points="994.5,-10 994.5,-30 1014.5,-30 1014.5,-10 994.5,-10"/>
<text text-anchor="start" x="1018.28" y="-15.4" font-family="sans-serif" font-size="14.00"> &#160;Bootstrap</text>
<polygon fill="#fdb462" stroke="transparent" points="1091.5,-10 1091.5,-30 1111.5,-30 1111.5,-10 1091.5,-10"/>
<text text-anchor="start" x="1115.17" y="-15.4" font-family="sans-serif" font-size="14.00"> &#160;Providers</text>
<polygon fill="#fb8072" stroke="transparent" points="1187.5,-10 1187.5,-30 1207.5,-30 1207.5,-10 1187.5,-10"/>
<text text-anchor="start" x="1211.23" y="-15.4" font-family="sans-serif" font-size="14.00"> &#160;Exports</text>
<g id="clust1" class="cluster">
<title>cluster_PublicModule</title>
<polygon fill="none" stroke="black" stroke-dasharray="1,5" points="8,-70 8,-195 2051,-195 2051,-70 8,-70"/>
</g>
<g id="clust14" class="cluster">
<title>cluster_PublicModule_imports</title>
<polygon fill="none" stroke="black" points="1763,-78 1763,-130 2043,-130 2043,-78 1763,-78"/>
</g>
<g id="clust2" class="cluster">
<title>cluster_PublicModule_declarations</title>
<polygon fill="none" stroke="black" points="16,-78 16,-130 1755,-130 1755,-78 16,-78"/>
</g>
<!-- ActivateAccountComponent -->
<g id="node1" class="node">
<title>ActivateAccountComponent</title>
<polygon fill="#ffffb3" stroke="black" points="1747.18,-122 1570.82,-122 1570.82,-86 1747.18,-86 1747.18,-122"/>
<text text-anchor="middle" x="1659" y="-99.8" font-family="Times,serif" font-size="14.00">ActivateAccountComponent</text>
</g>
<!-- PublicModule -->
<g id="node12" class="node">
<title>PublicModule</title>
<polygon fill="#8dd3c7" stroke="black" points="1070.83,-187 1067.83,-191 1046.83,-191 1043.83,-187 975.17,-187 975.17,-151 1070.83,-151 1070.83,-187"/>
<text text-anchor="middle" x="1023" y="-164.8" font-family="Times,serif" font-size="14.00">PublicModule</text>
</g>
<!-- ActivateAccountComponent&#45;&gt;PublicModule -->
<g id="edge1" class="edge">
<title>ActivateAccountComponent&#45;&gt;PublicModule</title>
<path fill="none" stroke="black" d="M1659,-122.22C1659,-142.37 1659,-172 1659,-172 1659,-172 1080.8,-172 1080.8,-172"/>
<polygon fill="black" stroke="black" points="1080.8,-168.5 1070.8,-172 1080.8,-175.5 1080.8,-168.5"/>
</g>
<!-- BookComponent -->
<g id="node2" class="node">
<title>BookComponent</title>
<polygon fill="#ffffb3" stroke="black" points="1552.67,-122 1441.33,-122 1441.33,-86 1552.67,-86 1552.67,-122"/>
<text text-anchor="middle" x="1497" y="-99.8" font-family="Times,serif" font-size="14.00">BookComponent</text>
</g>
<!-- BookComponent&#45;&gt;PublicModule -->
<g id="edge2" class="edge">
<title>BookComponent&#45;&gt;PublicModule</title>
<path fill="none" stroke="black" d="M1497,-122.22C1497,-140.83 1497,-167 1497,-167 1497,-167 1081.06,-167 1081.06,-167"/>
<polygon fill="black" stroke="black" points="1081.06,-163.5 1071.06,-167 1081.06,-170.5 1081.06,-163.5"/>
</g>
<!-- BookListComponent -->
<g id="node3" class="node">
<title>BookListComponent</title>
<polygon fill="#ffffb3" stroke="black" points="1422.95,-122 1289.05,-122 1289.05,-86 1422.95,-86 1422.95,-122"/>
<text text-anchor="middle" x="1356" y="-99.8" font-family="Times,serif" font-size="14.00">BookListComponent</text>
</g>
<!-- BookListComponent&#45;&gt;PublicModule -->
<g id="edge3" class="edge">
<title>BookListComponent&#45;&gt;PublicModule</title>
<path fill="none" stroke="black" d="M1356,-122.03C1356,-139.06 1356,-162 1356,-162 1356,-162 1080.71,-162 1080.71,-162"/>
<polygon fill="black" stroke="black" points="1080.71,-158.5 1070.71,-162 1080.71,-165.5 1080.71,-158.5"/>
</g>
<!-- FinishSignUpComponent -->
<g id="node4" class="node">
<title>FinishSignUpComponent</title>
<polygon fill="#ffffb3" stroke="black" points="1271.62,-122 1112.38,-122 1112.38,-86 1271.62,-86 1271.62,-122"/>
<text text-anchor="middle" x="1192" y="-99.8" font-family="Times,serif" font-size="14.00">FinishSignUpComponent</text>
</g>
<!-- FinishSignUpComponent&#45;&gt;PublicModule -->
<g id="edge4" class="edge">
<title>FinishSignUpComponent&#45;&gt;PublicModule</title>
<path fill="none" stroke="black" d="M1192,-122.24C1192,-137.57 1192,-157 1192,-157 1192,-157 1080.98,-157 1080.98,-157"/>
<polygon fill="black" stroke="black" points="1080.98,-153.5 1070.98,-157 1080.98,-160.5 1080.98,-153.5"/>
</g>
<!-- HomePageComponent -->
<g id="node5" class="node">
<title>HomePageComponent</title>
<polygon fill="#ffffb3" stroke="black" points="1094.26,-122 951.74,-122 951.74,-86 1094.26,-86 1094.26,-122"/>
<text text-anchor="middle" x="1023" y="-99.8" font-family="Times,serif" font-size="14.00">HomePageComponent</text>
</g>
<!-- HomePageComponent&#45;&gt;PublicModule -->
<g id="edge5" class="edge">
<title>HomePageComponent&#45;&gt;PublicModule</title>
<path fill="none" stroke="black" d="M1023,-122.11C1023,-122.11 1023,-140.99 1023,-140.99"/>
<polygon fill="black" stroke="black" points="1019.5,-140.99 1023,-150.99 1026.5,-140.99 1019.5,-140.99"/>
</g>
<!-- PublicAuthorComponent -->
<g id="node6" class="node">
<title>PublicAuthorComponent</title>
<polygon fill="#ffffb3" stroke="black" points="933.27,-122 776.73,-122 776.73,-86 933.27,-86 933.27,-122"/>
<text text-anchor="middle" x="855" y="-99.8" font-family="Times,serif" font-size="14.00">PublicAuthorComponent</text>
</g>
<!-- PublicAuthorComponent&#45;&gt;PublicModule -->
<g id="edge6" class="edge">
<title>PublicAuthorComponent&#45;&gt;PublicModule</title>
<path fill="none" stroke="black" d="M855,-122.24C855,-137.57 855,-157 855,-157 855,-157 965.31,-157 965.31,-157"/>
<polygon fill="black" stroke="black" points="965.31,-160.5 975.31,-157 965.31,-153.5 965.31,-160.5"/>
</g>
<!-- PublicComponent -->
<g id="node7" class="node">
<title>PublicComponent</title>
<polygon fill="#ffffb3" stroke="black" points="758.61,-122 641.39,-122 641.39,-86 758.61,-86 758.61,-122"/>
<text text-anchor="middle" x="700" y="-99.8" font-family="Times,serif" font-size="14.00">PublicComponent</text>
</g>
<!-- PublicComponent&#45;&gt;PublicModule -->
<g id="edge7" class="edge">
<title>PublicComponent&#45;&gt;PublicModule</title>
<path fill="none" stroke="black" d="M700,-122.03C700,-139.06 700,-162 700,-162 700,-162 964.99,-162 964.99,-162"/>
<polygon fill="black" stroke="black" points="964.99,-165.5 974.99,-162 964.99,-158.5 964.99,-165.5"/>
</g>
<!-- PublicUserComponent -->
<g id="node8" class="node">
<title>PublicUserComponent</title>
<polygon fill="#ffffb3" stroke="black" points="623.54,-122 480.46,-122 480.46,-86 623.54,-86 623.54,-122"/>
<text text-anchor="middle" x="552" y="-99.8" font-family="Times,serif" font-size="14.00">PublicUserComponent</text>
</g>
<!-- PublicUserComponent&#45;&gt;PublicModule -->
<g id="edge8" class="edge">
<title>PublicUserComponent&#45;&gt;PublicModule</title>
<path fill="none" stroke="black" d="M552,-122.22C552,-140.83 552,-167 552,-167 552,-167 965.25,-167 965.25,-167"/>
<polygon fill="black" stroke="black" points="965.25,-170.5 975.25,-167 965.25,-163.5 965.25,-170.5"/>
</g>
<!-- SignInComponent -->
<g id="node9" class="node">
<title>SignInComponent</title>
<polygon fill="#ffffb3" stroke="black" points="462.17,-122 343.83,-122 343.83,-86 462.17,-86 462.17,-122"/>
<text text-anchor="middle" x="403" y="-99.8" font-family="Times,serif" font-size="14.00">SignInComponent</text>
</g>
<!-- SignInComponent&#45;&gt;PublicModule -->
<g id="edge9" class="edge">
<title>SignInComponent&#45;&gt;PublicModule</title>
<path fill="none" stroke="black" d="M403,-122.22C403,-142.37 403,-172 403,-172 403,-172 965.12,-172 965.12,-172"/>
<polygon fill="black" stroke="black" points="965.12,-175.5 975.12,-172 965.12,-168.5 965.12,-175.5"/>
</g>
<!-- SignUpComponent -->
<g id="node10" class="node">
<title>SignUpComponent</title>
<polygon fill="#ffffb3" stroke="black" points="326.11,-122 201.89,-122 201.89,-86 326.11,-86 326.11,-122"/>
<text text-anchor="middle" x="264" y="-99.8" font-family="Times,serif" font-size="14.00">SignUpComponent</text>
</g>
<!-- SignUpComponent&#45;&gt;PublicModule -->
<g id="edge10" class="edge">
<title>SignUpComponent&#45;&gt;PublicModule</title>
<path fill="none" stroke="black" d="M264,-122.04C264,-143.66 264,-177 264,-177 264,-177 965.23,-177 965.23,-177"/>
<polygon fill="black" stroke="black" points="965.23,-180.5 975.23,-177 965.23,-173.5 965.23,-180.5"/>
</g>
<!-- UserBookListComponent -->
<g id="node11" class="node">
<title>UserBookListComponent</title>
<polygon fill="#ffffb3" stroke="black" points="183.87,-122 24.13,-122 24.13,-86 183.87,-86 183.87,-122"/>
<text text-anchor="middle" x="104" y="-99.8" font-family="Times,serif" font-size="14.00">UserBookListComponent</text>
</g>
<!-- UserBookListComponent&#45;&gt;PublicModule -->
<g id="edge11" class="edge">
<title>UserBookListComponent&#45;&gt;PublicModule</title>
<path fill="none" stroke="black" d="M104,-122.09C104,-145.13 104,-182 104,-182 104,-182 965.21,-182 965.21,-182"/>
<polygon fill="black" stroke="black" points="965.21,-185.5 975.21,-182 965.21,-178.5 965.21,-185.5"/>
</g>
<!-- PublicRoutingModule -->
<g id="node13" class="node">
<title>PublicRoutingModule</title>
<polygon fill="#8dd3c7" stroke="black" points="2035.45,-122 2032.45,-126 2011.45,-126 2008.45,-122 1894.55,-122 1894.55,-86 2035.45,-86 2035.45,-122"/>
<text text-anchor="middle" x="1965" y="-99.8" font-family="Times,serif" font-size="14.00">PublicRoutingModule</text>
</g>
<!-- PublicRoutingModule&#45;&gt;PublicModule -->
<g id="edge12" class="edge">
<title>PublicRoutingModule&#45;&gt;PublicModule</title>
<path fill="none" stroke="black" d="M1965,-122.09C1965,-145.13 1965,-182 1965,-182 1965,-182 1080.68,-182 1080.68,-182"/>
<polygon fill="black" stroke="black" points="1080.68,-178.5 1070.68,-182 1080.68,-185.5 1080.68,-178.5"/>
</g>
<!-- WidgetsModule -->
<g id="node14" class="node">
<title>WidgetsModule</title>
<polygon fill="#8dd3c7" stroke="black" points="1877.2,-122 1874.2,-126 1853.2,-126 1850.2,-122 1770.8,-122 1770.8,-86 1877.2,-86 1877.2,-122"/>
<text text-anchor="middle" x="1824" y="-99.8" font-family="Times,serif" font-size="14.00">WidgetsModule</text>
</g>
<!-- WidgetsModule&#45;&gt;PublicModule -->
<g id="edge13" class="edge">
<title>WidgetsModule&#45;&gt;PublicModule</title>
<path fill="none" stroke="black" d="M1824,-122.04C1824,-143.66 1824,-177 1824,-177 1824,-177 1080.71,-177 1080.71,-177"/>
<polygon fill="black" stroke="black" points="1080.71,-173.5 1070.71,-177 1080.71,-180.5 1080.71,-173.5"/>
</g>
</g>
</svg>
