<?xml version="1.0" encoding="UTF-8" standalone="no"?>
<!DOCTYPE svg PUBLIC "-//W3C//DTD SVG 1.1//EN"
 "http://www.w3.org/Graphics/SVG/1.1/DTD/svg11.dtd">
<!-- Generated by graphviz version 2.47.0 (20210316.0004)
 -->
<!-- Title: dependencies Pages: 1 -->
<svg width="1417pt" height="211pt"
 viewBox="0.00 0.00 1417.00 211.00" xmlns="http://www.w3.org/2000/svg" xmlns:xlink="http://www.w3.org/1999/xlink">
<g id="graph0" class="graph" transform="scale(1 1) rotate(0) translate(4 207)">
<title>dependencies</title>
<polygon fill="white" stroke="transparent" points="-4,4 -4,-207 1413,-207 1413,4 -4,4"/>
<text text-anchor="start" x="683.51" y="-42.4" font-family="sans-serif" font-weight="bold" font-size="14.00">Legend</text>
<polygon fill="#ffffb3" stroke="transparent" points="470.5,-10 470.5,-30 490.5,-30 490.5,-10 470.5,-10"/>
<text text-anchor="start" x="494.13" y="-15.4" font-family="sans-serif" font-size="14.00"> &#160;Declarations</text>
<polygon fill="#8dd3c7" stroke="transparent" points="583.5,-10 583.5,-30 603.5,-30 603.5,-10 583.5,-10"/>
<text text-anchor="start" x="607.23" y="-15.4" font-family="sans-serif" font-size="14.00"> &#160;Module</text>
<polygon fill="#80b1d3" stroke="transparent" points="669.5,-10 669.5,-30 689.5,-30 689.5,-10 669.5,-10"/>
<text text-anchor="start" x="693.28" y="-15.4" font-family="sans-serif" font-size="14.00"> &#160;Bootstrap</text>
<polygon fill="#fdb462" stroke="transparent" points="766.5,-10 766.5,-30 786.5,-30 786.5,-10 766.5,-10"/>
<text text-anchor="start" x="790.17" y="-15.4" font-family="sans-serif" font-size="14.00"> &#160;Providers</text>
<polygon fill="#fb8072" stroke="transparent" points="862.5,-10 862.5,-30 882.5,-30 882.5,-10 862.5,-10"/>
<text text-anchor="start" x="886.23" y="-15.4" font-family="sans-serif" font-size="14.00"> &#160;Exports</text>
<g id="clust1" class="cluster">
<title>cluster_AdminModule</title>
<polygon fill="none" stroke="black" stroke-dasharray="1,5" points="8,-70 8,-195 1401,-195 1401,-70 8,-70"/>
</g>
<g id="clust2" class="cluster">
<title>cluster_AdminModule_declarations</title>
<polygon fill="none" stroke="black" points="308,-78 308,-130 1393,-130 1393,-78 308,-78"/>
</g>
<g id="clust9" class="cluster">
<title>cluster_AdminModule_imports</title>
<polygon fill="none" stroke="black" points="16,-78 16,-130 300,-130 300,-78 16,-78"/>
</g>
<!-- AddPendingBookComponent -->
<g id="node1" class="node">
<title>AddPendingBookComponent</title>
<polygon fill="#ffffb3" stroke="black" points="1384.66,-122 1203.34,-122 1203.34,-86 1384.66,-86 1384.66,-122"/>
<text text-anchor="middle" x="1294" y="-99.8" font-family="Times,serif" font-size="14.00">AddPendingBookComponent</text>
</g>
<!-- AdminModule -->
<g id="node7" class="node">
<title>AdminModule</title>
<polygon fill="#8dd3c7" stroke="black" points="714.44,-187 711.44,-191 690.44,-191 687.44,-187 615.56,-187 615.56,-151 714.44,-151 714.44,-187"/>
<text text-anchor="middle" x="665" y="-164.8" font-family="Times,serif" font-size="14.00">AdminModule</text>
</g>
<!-- AddPendingBookComponent&#45;&gt;AdminModule -->
<g id="edge1" class="edge">
<title>AddPendingBookComponent&#45;&gt;AdminModule</title>
<path fill="none" stroke="black" d="M1294,-122.29C1294,-144.21 1294,-178 1294,-178 1294,-178 724.36,-178 724.36,-178"/>
<polygon fill="black" stroke="black" points="724.36,-174.5 714.36,-178 724.36,-181.5 724.36,-174.5"/>
</g>
<!-- AdminComponent -->
<g id="node2" class="node">
<title>AdminComponent</title>
<polygon fill="#ffffb3" stroke="black" points="1185.22,-122 1064.78,-122 1064.78,-86 1185.22,-86 1185.22,-122"/>
<text text-anchor="middle" x="1125" y="-99.8" font-family="Times,serif" font-size="14.00">AdminComponent</text>
</g>
<!-- AdminComponent&#45;&gt;AdminModule -->
<g id="edge2" class="edge">
<title>AdminComponent&#45;&gt;AdminModule</title>
<path fill="none" stroke="black" d="M1125,-122.11C1125,-141.34 1125,-169 1125,-169 1125,-169 724.23,-169 724.23,-169"/>
<polygon fill="black" stroke="black" points="724.23,-165.5 714.23,-169 724.23,-172.5 724.23,-165.5"/>
</g>
<!-- AdminHomeComponent -->
<g id="node3" class="node">
<title>AdminHomeComponent</title>
<polygon fill="#ffffb3" stroke="black" points="1047.43,-122 892.57,-122 892.57,-86 1047.43,-86 1047.43,-122"/>
<text text-anchor="middle" x="970" y="-99.8" font-family="Times,serif" font-size="14.00">AdminHomeComponent</text>
</g>
<!-- AdminHomeComponent&#45;&gt;AdminModule -->
<g id="edge3" class="edge">
<title>AdminHomeComponent&#45;&gt;AdminModule</title>
<path fill="none" stroke="black" d="M970,-122.03C970,-138.4 970,-160 970,-160 970,-160 724.34,-160 724.34,-160"/>
<polygon fill="black" stroke="black" points="724.34,-156.5 714.34,-160 724.34,-163.5 724.34,-156.5"/>
</g>
<!-- CreateSpecialAccountComponent -->
<g id="node4" class="node">
<title>CreateSpecialAccountComponent</title>
<polygon fill="#ffffb3" stroke="black" points="875.5,-122 668.5,-122 668.5,-86 875.5,-86 875.5,-122"/>
<text text-anchor="middle" x="772" y="-99.8" font-family="Times,serif" font-size="14.00">CreateSpecialAccountComponent</text>
</g>
<!-- CreateSpecialAccountComponent&#45;&gt;AdminModule -->
<g id="edge4" class="edge">
<title>CreateSpecialAccountComponent&#45;&gt;AdminModule</title>
<path fill="none" stroke="black" d="M691.48,-122.11C691.48,-122.11 691.48,-140.99 691.48,-140.99"/>
<polygon fill="black" stroke="black" points="687.98,-140.99 691.48,-150.99 694.98,-140.99 687.98,-140.99"/>
</g>
<!-- ListPendingBooksComponent -->
<g id="node5" class="node">
<title>ListPendingBooksComponent</title>
<polygon fill="#ffffb3" stroke="black" points="650.28,-122 465.72,-122 465.72,-86 650.28,-86 650.28,-122"/>
<text text-anchor="middle" x="558" y="-99.8" font-family="Times,serif" font-size="14.00">ListPendingBooksComponent</text>
</g>
<!-- ListPendingBooksComponent&#45;&gt;AdminModule -->
<g id="edge5" class="edge">
<title>ListPendingBooksComponent&#45;&gt;AdminModule</title>
<path fill="none" stroke="black" d="M633.09,-122.11C633.09,-122.11 633.09,-140.99 633.09,-140.99"/>
<polygon fill="black" stroke="black" points="629.59,-140.99 633.09,-150.99 636.59,-140.99 629.59,-140.99"/>
</g>
<!-- StatisticsComponent -->
<g id="node6" class="node">
<title>StatisticsComponent</title>
<polygon fill="#ffffb3" stroke="black" points="447.89,-122 316.11,-122 316.11,-86 447.89,-86 447.89,-122"/>
<text text-anchor="middle" x="382" y="-99.8" font-family="Times,serif" font-size="14.00">StatisticsComponent</text>
</g>
<!-- StatisticsComponent&#45;&gt;AdminModule -->
<g id="edge6" class="edge">
<title>StatisticsComponent&#45;&gt;AdminModule</title>
<path fill="none" stroke="black" d="M382,-122.03C382,-138.4 382,-160 382,-160 382,-160 605.71,-160 605.71,-160"/>
<polygon fill="black" stroke="black" points="605.71,-163.5 615.71,-160 605.71,-156.5 605.71,-163.5"/>
</g>
<!-- AdminRoutingModule -->
<g id="node8" class="node">
<title>AdminRoutingModule</title>
<polygon fill="#8dd3c7" stroke="black" points="291.56,-122 288.56,-126 267.56,-126 264.56,-122 148.44,-122 148.44,-86 291.56,-86 291.56,-122"/>
<text text-anchor="middle" x="220" y="-99.8" font-family="Times,serif" font-size="14.00">AdminRoutingModule</text>
</g>
<!-- AdminRoutingModule&#45;&gt;AdminModule -->
<g id="edge7" class="edge">
<title>AdminRoutingModule&#45;&gt;AdminModule</title>
<path fill="none" stroke="black" d="M220,-122.11C220,-141.34 220,-169 220,-169 220,-169 605.68,-169 605.68,-169"/>
<polygon fill="black" stroke="black" points="605.68,-172.5 615.68,-169 605.68,-165.5 605.68,-172.5"/>
</g>
<!-- WidgetsModule -->
<g id="node9" class="node">
<title>WidgetsModule</title>
<polygon fill="#8dd3c7" stroke="black" points="130.2,-122 127.2,-126 106.2,-126 103.2,-122 23.8,-122 23.8,-86 130.2,-86 130.2,-122"/>
<text text-anchor="middle" x="77" y="-99.8" font-family="Times,serif" font-size="14.00">WidgetsModule</text>
</g>
<!-- WidgetsModule&#45;&gt;AdminModule -->
<g id="edge8" class="edge">
<title>WidgetsModule&#45;&gt;AdminModule</title>
<path fill="none" stroke="black" d="M77,-122.29C77,-144.21 77,-178 77,-178 77,-178 605.63,-178 605.63,-178"/>
<polygon fill="black" stroke="black" points="605.63,-181.5 615.63,-178 605.63,-174.5 605.63,-181.5"/>
</g>
</g>
</svg>
