<?xml version="1.0" encoding="UTF-8" standalone="no"?>
<!DOCTYPE svg PUBLIC "-//W3C//DTD SVG 1.1//EN"
 "http://www.w3.org/Graphics/SVG/1.1/DTD/svg11.dtd">
<!-- Generated by graphviz version 2.47.0 (20210316.0004)
 -->
<!-- Title: dependencies Pages: 1 -->
<svg width="909pt" height="284pt"
 viewBox="0.00 0.00 909.00 284.00" xmlns="http://www.w3.org/2000/svg" xmlns:xlink="http://www.w3.org/1999/xlink">
<g id="graph0" class="graph" transform="scale(1 1) rotate(0) translate(4 280)">
<title>dependencies</title>
<polygon fill="white" stroke="transparent" points="-4,4 -4,-280 905,-280 905,4 -4,4"/>
<text text-anchor="start" x="429.51" y="-42.4" font-family="sans-serif" font-weight="bold" font-size="14.00">Legend</text>
<polygon fill="#ffffb3" stroke="transparent" points="216.5,-10 216.5,-30 236.5,-30 236.5,-10 216.5,-10"/>
<text text-anchor="start" x="240.13" y="-15.4" font-family="sans-serif" font-size="14.00"> &#160;Declarations</text>
<polygon fill="#8dd3c7" stroke="transparent" points="329.5,-10 329.5,-30 349.5,-30 349.5,-10 329.5,-10"/>
<text text-anchor="start" x="353.23" y="-15.4" font-family="sans-serif" font-size="14.00"> &#160;Module</text>
<polygon fill="#80b1d3" stroke="transparent" points="415.5,-10 415.5,-30 435.5,-30 435.5,-10 415.5,-10"/>
<text text-anchor="start" x="439.28" y="-15.4" font-family="sans-serif" font-size="14.00"> &#160;Bootstrap</text>
<polygon fill="#fdb462" stroke="transparent" points="512.5,-10 512.5,-30 532.5,-30 532.5,-10 512.5,-10"/>
<text text-anchor="start" x="536.17" y="-15.4" font-family="sans-serif" font-size="14.00"> &#160;Providers</text>
<polygon fill="#fb8072" stroke="transparent" points="608.5,-10 608.5,-30 628.5,-30 628.5,-10 608.5,-10"/>
<text text-anchor="start" x="632.23" y="-15.4" font-family="sans-serif" font-size="14.00"> &#160;Exports</text>
<g id="clust1" class="cluster">
<title>cluster_AppModule</title>
<polygon fill="none" stroke="black" stroke-dasharray="1,5" points="8,-70 8,-268 893,-268 893,-70 8,-70"/>
</g>
<g id="clust2" class="cluster">
<title>cluster_AppModule_declarations</title>
<polygon fill="none" stroke="black" points="623,-78 623,-130 885,-130 885,-78 623,-78"/>
</g>
<g id="clust5" class="cluster">
<title>cluster_AppModule_imports</title>
<polygon fill="none" stroke="black" points="240,-78 240,-130 615,-130 615,-78 240,-78"/>
</g>
<g id="clust7" class="cluster">
<title>cluster_AppModule_bootstrap</title>
<polygon fill="none" stroke="black" points="415,-208 415,-260 539,-260 539,-208 415,-208"/>
</g>
<g id="clust8" class="cluster">
<title>cluster_AppModule_providers</title>
<polygon fill="none" stroke="black" points="16,-78 16,-130 232,-130 232,-78 16,-78"/>
</g>
<!-- AppComponent -->
<g id="node1" class="node">
<title>AppComponent</title>
<polygon fill="#ffffb3" stroke="black" points="876.94,-122 771.06,-122 771.06,-86 876.94,-86 876.94,-122"/>
<text text-anchor="middle" x="824" y="-99.8" font-family="Times,serif" font-size="14.00">AppComponent</text>
</g>
<!-- AppModule -->
<g id="node3" class="node">
<title>AppModule</title>
<polygon fill="#8dd3c7" stroke="black" points="518.66,-187 515.66,-191 494.66,-191 491.66,-187 435.34,-187 435.34,-151 518.66,-151 518.66,-187"/>
<text text-anchor="middle" x="477" y="-164.8" font-family="Times,serif" font-size="14.00">AppModule</text>
</g>
<!-- AppComponent&#45;&gt;AppModule -->
<g id="edge1" class="edge">
<title>AppComponent&#45;&gt;AppModule</title>
<path fill="none" stroke="black" d="M824,-122.28C824,-143.32 824,-175 824,-175 824,-175 528.86,-175 528.86,-175"/>
<polygon fill="black" stroke="black" points="528.86,-171.5 518.86,-175 528.86,-178.5 528.86,-171.5"/>
</g>
<!-- HeaderComponent -->
<g id="node2" class="node">
<title>HeaderComponent</title>
<polygon fill="#ffffb3" stroke="black" points="752.74,-122 631.26,-122 631.26,-86 752.74,-86 752.74,-122"/>
<text text-anchor="middle" x="692" y="-99.8" font-family="Times,serif" font-size="14.00">HeaderComponent</text>
</g>
<!-- HeaderComponent&#45;&gt;AppModule -->
<g id="edge2" class="edge">
<title>HeaderComponent&#45;&gt;AppModule</title>
<path fill="none" stroke="black" d="M692,-122.02C692,-139.37 692,-163 692,-163 692,-163 528.71,-163 528.71,-163"/>
<polygon fill="black" stroke="black" points="528.71,-159.5 518.71,-163 528.71,-166.5 528.71,-159.5"/>
</g>
<!-- AppComponent  -->
<g id="node7" class="node">
<title>AppComponent </title>
<polygon fill="#80b1d3" stroke="black" points="531.44,-252 422.56,-252 422.56,-216 531.44,-216 531.44,-252"/>
<text text-anchor="middle" x="477" y="-229.8" font-family="Times,serif" font-size="14.00">AppComponent </text>
</g>
<!-- AppModule&#45;&gt;AppComponent  -->
<g id="edge6" class="edge">
<title>AppModule&#45;&gt;AppComponent </title>
<path fill="none" stroke="black" stroke-dasharray="1,5" d="M477,-187.11C477,-187.11 477,-205.99 477,-205.99"/>
<polygon fill="black" stroke="black" points="473.5,-205.99 477,-215.99 480.5,-205.99 473.5,-205.99"/>
</g>
<!-- AppRoutingModule -->
<g id="node4" class="node">
<title>AppRoutingModule</title>
<polygon fill="#8dd3c7" stroke="black" points="607.27,-122 604.27,-126 583.27,-126 580.27,-122 478.73,-122 478.73,-86 607.27,-86 607.27,-122"/>
<text text-anchor="middle" x="543" y="-99.8" font-family="Times,serif" font-size="14.00">AppRoutingModule</text>
</g>
<!-- AppRoutingModule&#45;&gt;AppModule -->
<g id="edge3" class="edge">
<title>AppRoutingModule&#45;&gt;AppModule</title>
<path fill="none" stroke="black" d="M498.72,-122.11C498.72,-122.11 498.72,-140.99 498.72,-140.99"/>
<polygon fill="black" stroke="black" points="495.22,-140.99 498.72,-150.99 502.22,-140.99 495.22,-140.99"/>
</g>
<!-- PrivateModule -->
<g id="node5" class="node">
<title>PrivateModule</title>
<polygon fill="#8dd3c7" stroke="black" points="460.7,-122 457.7,-126 436.7,-126 433.7,-122 361.3,-122 361.3,-86 460.7,-86 460.7,-122"/>
<text text-anchor="middle" x="411" y="-99.8" font-family="Times,serif" font-size="14.00">PrivateModule</text>
</g>
<!-- PrivateModule&#45;&gt;AppModule -->
<g id="edge4" class="edge">
<title>PrivateModule&#45;&gt;AppModule</title>
<path fill="none" stroke="black" d="M447.89,-122.11C447.89,-122.11 447.89,-140.99 447.89,-140.99"/>
<polygon fill="black" stroke="black" points="444.39,-140.99 447.89,-150.99 451.39,-140.99 444.39,-140.99"/>
</g>
<!-- PublicModule -->
<g id="node6" class="node">
<title>PublicModule</title>
<polygon fill="#8dd3c7" stroke="black" points="343.83,-122 340.83,-126 319.83,-126 316.83,-122 248.17,-122 248.17,-86 343.83,-86 343.83,-122"/>
<text text-anchor="middle" x="296" y="-99.8" font-family="Times,serif" font-size="14.00">PublicModule</text>
</g>
<!-- PublicModule&#45;&gt;AppModule -->
<g id="edge5" class="edge">
<title>PublicModule&#45;&gt;AppModule</title>
<path fill="none" stroke="black" d="M296,-122.02C296,-139.37 296,-163 296,-163 296,-163 425.02,-163 425.02,-163"/>
<polygon fill="black" stroke="black" points="425.02,-166.5 435.02,-163 425.02,-159.5 425.02,-166.5"/>
</g>
<!-- HttpInterceptorService -->
<g id="node8" class="node">
<title>HttpInterceptorService</title>
<ellipse fill="#fdb462" stroke="black" cx="124" cy="-104" rx="99.53" ry="18"/>
<text text-anchor="middle" x="124" y="-99.8" font-family="Times,serif" font-size="14.00">HttpInterceptorService</text>
</g>
<!-- HttpInterceptorService&#45;&gt;AppModule -->
<g id="edge7" class="edge">
<title>HttpInterceptorService&#45;&gt;AppModule</title>
<path fill="none" stroke="black" d="M124,-122.28C124,-143.32 124,-175 124,-175 124,-175 425.12,-175 425.12,-175"/>
<polygon fill="black" stroke="black" points="425.12,-178.5 435.12,-175 425.12,-171.5 425.12,-178.5"/>
</g>
</g>
</svg>
