<?xml version="1.0" encoding="UTF-8" standalone="no"?>
<!DOCTYPE svg PUBLIC "-//W3C//DTD SVG 1.1//EN"
 "http://www.w3.org/Graphics/SVG/1.1/DTD/svg11.dtd">
<!-- Generated by graphviz version 2.47.0 (20210316.0004)
 -->
<!-- Title: dependencies Pages: 1 -->
<svg width="1364pt" height="211pt"
 viewBox="0.00 0.00 1364.00 211.00" xmlns="http://www.w3.org/2000/svg" xmlns:xlink="http://www.w3.org/1999/xlink">
<g id="graph0" class="graph" transform="scale(1 1) rotate(0) translate(4 207)">
<title>dependencies</title>
<polygon fill="white" stroke="transparent" points="-4,4 -4,-207 1360,-207 1360,4 -4,4"/>
<text text-anchor="start" x="657.01" y="-42.4" font-family="sans-serif" font-weight="bold" font-size="14.00">Legend</text>
<polygon fill="#ffffb3" stroke="transparent" points="444,-10 444,-30 464,-30 464,-10 444,-10"/>
<text text-anchor="start" x="467.63" y="-15.4" font-family="sans-serif" font-size="14.00"> &#160;Declarations</text>
<polygon fill="#8dd3c7" stroke="transparent" points="557,-10 557,-30 577,-30 577,-10 557,-10"/>
<text text-anchor="start" x="580.73" y="-15.4" font-family="sans-serif" font-size="14.00"> &#160;Module</text>
<polygon fill="#80b1d3" stroke="transparent" points="643,-10 643,-30 663,-30 663,-10 643,-10"/>
<text text-anchor="start" x="666.78" y="-15.4" font-family="sans-serif" font-size="14.00"> &#160;Bootstrap</text>
<polygon fill="#fdb462" stroke="transparent" points="740,-10 740,-30 760,-30 760,-10 740,-10"/>
<text text-anchor="start" x="763.67" y="-15.4" font-family="sans-serif" font-size="14.00"> &#160;Providers</text>
<polygon fill="#fb8072" stroke="transparent" points="836,-10 836,-30 856,-30 856,-10 836,-10"/>
<text text-anchor="start" x="859.73" y="-15.4" font-family="sans-serif" font-size="14.00"> &#160;Exports</text>
<g id="clust1" class="cluster">
<title>cluster_PrivateModule</title>
<polygon fill="none" stroke="black" stroke-dasharray="1,5" points="8,-70 8,-195 1348,-195 1348,-70 8,-70"/>
</g>
<g id="clust8" class="cluster">
<title>cluster_PrivateModule_imports</title>
<polygon fill="none" stroke="black" points="822,-78 822,-130 1340,-130 1340,-78 822,-78"/>
</g>
<g id="clust2" class="cluster">
<title>cluster_PrivateModule_declarations</title>
<polygon fill="none" stroke="black" points="16,-78 16,-130 814,-130 814,-78 16,-78"/>
</g>
<!-- AddBookComponent -->
<g id="node1" class="node">
<title>AddBookComponent</title>
<polygon fill="#ffffb3" stroke="black" points="805.78,-122 670.22,-122 670.22,-86 805.78,-86 805.78,-122"/>
<text text-anchor="middle" x="738" y="-99.8" font-family="Times,serif" font-size="14.00">AddBookComponent</text>
</g>
<!-- PrivateModule -->
<g id="node6" class="node">
<title>PrivateModule</title>
<polygon fill="#8dd3c7" stroke="black" points="787.7,-187 784.7,-191 763.7,-191 760.7,-187 688.3,-187 688.3,-151 787.7,-151 787.7,-187"/>
<text text-anchor="middle" x="738" y="-164.8" font-family="Times,serif" font-size="14.00">PrivateModule</text>
</g>
<!-- AddBookComponent&#45;&gt;PrivateModule -->
<g id="edge1" class="edge">
<title>AddBookComponent&#45;&gt;PrivateModule</title>
<path fill="none" stroke="black" d="M738,-122.11C738,-122.11 738,-140.99 738,-140.99"/>
<polygon fill="black" stroke="black" points="734.5,-140.99 738,-150.99 741.5,-140.99 734.5,-140.99"/>
</g>
<!-- AddMultipleBooksComponent -->
<g id="node2" class="node">
<title>AddMultipleBooksComponent</title>
<polygon fill="#ffffb3" stroke="black" points="651.94,-122 462.06,-122 462.06,-86 651.94,-86 651.94,-122"/>
<text text-anchor="middle" x="557" y="-99.8" font-family="Times,serif" font-size="14.00">AddMultipleBooksComponent</text>
</g>
<!-- AddMultipleBooksComponent&#45;&gt;PrivateModule -->
<g id="edge2" class="edge">
<title>AddMultipleBooksComponent&#45;&gt;PrivateModule</title>
<path fill="none" stroke="black" d="M557,-122.01C557,-138.05 557,-159 557,-159 557,-159 678.06,-159 678.06,-159"/>
<polygon fill="black" stroke="black" points="678.06,-162.5 688.06,-159 678.06,-155.5 678.06,-162.5"/>
</g>
<!-- AddSagaComponent -->
<g id="node3" class="node">
<title>AddSagaComponent</title>
<polygon fill="#ffffb3" stroke="black" points="444.15,-122 311.85,-122 311.85,-86 444.15,-86 444.15,-122"/>
<text text-anchor="middle" x="378" y="-99.8" font-family="Times,serif" font-size="14.00">AddSagaComponent</text>
</g>
<!-- AddSagaComponent&#45;&gt;PrivateModule -->
<g id="edge3" class="edge">
<title>AddSagaComponent&#45;&gt;PrivateModule</title>
<path fill="none" stroke="black" d="M378,-122.27C378,-140.56 378,-166 378,-166 378,-166 678.32,-166 678.32,-166"/>
<polygon fill="black" stroke="black" points="678.32,-169.5 688.32,-166 678.32,-162.5 678.32,-169.5"/>
</g>
<!-- PrivateComponent -->
<g id="node4" class="node">
<title>PrivateComponent</title>
<polygon fill="#ffffb3" stroke="black" points="293.49,-122 172.51,-122 172.51,-86 293.49,-86 293.49,-122"/>
<text text-anchor="middle" x="233" y="-99.8" font-family="Times,serif" font-size="14.00">PrivateComponent</text>
</g>
<!-- PrivateComponent&#45;&gt;PrivateModule -->
<g id="edge4" class="edge">
<title>PrivateComponent&#45;&gt;PrivateModule</title>
<path fill="none" stroke="black" d="M233,-122.13C233,-142.57 233,-173 233,-173 233,-173 678.2,-173 678.2,-173"/>
<polygon fill="black" stroke="black" points="678.2,-176.5 688.2,-173 678.2,-169.5 678.2,-176.5"/>
</g>
<!-- SagaListComponent -->
<g id="node5" class="node">
<title>SagaListComponent</title>
<polygon fill="#ffffb3" stroke="black" points="154.32,-122 23.68,-122 23.68,-86 154.32,-86 154.32,-122"/>
<text text-anchor="middle" x="89" y="-99.8" font-family="Times,serif" font-size="14.00">SagaListComponent</text>
</g>
<!-- SagaListComponent&#45;&gt;PrivateModule -->
<g id="edge5" class="edge">
<title>SagaListComponent&#45;&gt;PrivateModule</title>
<path fill="none" stroke="black" d="M89,-122.01C89,-144.49 89,-180 89,-180 89,-180 678.15,-180 678.15,-180"/>
<polygon fill="black" stroke="black" points="678.15,-183.5 688.15,-180 678.15,-176.5 678.15,-183.5"/>
</g>
<!-- AdminModule -->
<g id="node7" class="node">
<title>AdminModule</title>
<polygon fill="#8dd3c7" stroke="black" points="1332.44,-122 1329.44,-126 1308.44,-126 1305.44,-122 1233.56,-122 1233.56,-86 1332.44,-86 1332.44,-122"/>
<text text-anchor="middle" x="1283" y="-99.8" font-family="Times,serif" font-size="14.00">AdminModule</text>
</g>
<!-- AdminModule&#45;&gt;PrivateModule -->
<g id="edge6" class="edge">
<title>AdminModule&#45;&gt;PrivateModule</title>
<path fill="none" stroke="black" d="M1283,-122.01C1283,-144.49 1283,-180 1283,-180 1283,-180 797.81,-180 797.81,-180"/>
<polygon fill="black" stroke="black" points="797.81,-176.5 787.81,-180 797.81,-183.5 797.81,-176.5"/>
</g>
<!-- AuthorModule -->
<g id="node8" class="node">
<title>AuthorModule</title>
<polygon fill="#8dd3c7" stroke="black" points="1215.71,-122 1212.71,-126 1191.71,-126 1188.71,-122 1116.29,-122 1116.29,-86 1215.71,-86 1215.71,-122"/>
<text text-anchor="middle" x="1166" y="-99.8" font-family="Times,serif" font-size="14.00">AuthorModule</text>
</g>
<!-- AuthorModule&#45;&gt;PrivateModule -->
<g id="edge7" class="edge">
<title>AuthorModule&#45;&gt;PrivateModule</title>
<path fill="none" stroke="black" d="M1166,-122.13C1166,-142.57 1166,-173 1166,-173 1166,-173 797.93,-173 797.93,-173"/>
<polygon fill="black" stroke="black" points="797.93,-169.5 787.93,-173 797.93,-176.5 797.93,-169.5"/>
</g>
<!-- PrivateRoutingModule -->
<g id="node9" class="node">
<title>PrivateRoutingModule</title>
<polygon fill="#8dd3c7" stroke="black" points="1098.32,-122 1095.32,-126 1074.32,-126 1071.32,-122 953.68,-122 953.68,-86 1098.32,-86 1098.32,-122"/>
<text text-anchor="middle" x="1026" y="-99.8" font-family="Times,serif" font-size="14.00">PrivateRoutingModule</text>
</g>
<!-- PrivateRoutingModule&#45;&gt;PrivateModule -->
<g id="edge8" class="edge">
<title>PrivateRoutingModule&#45;&gt;PrivateModule</title>
<path fill="none" stroke="black" d="M1026,-122.27C1026,-140.56 1026,-166 1026,-166 1026,-166 797.84,-166 797.84,-166"/>
<polygon fill="black" stroke="black" points="797.84,-162.5 787.84,-166 797.84,-169.5 797.84,-162.5"/>
</g>
<!-- WidgetsModule -->
<g id="node10" class="node">
<title>WidgetsModule</title>
<polygon fill="#8dd3c7" stroke="black" points="936.2,-122 933.2,-126 912.2,-126 909.2,-122 829.8,-122 829.8,-86 936.2,-86 936.2,-122"/>
<text text-anchor="middle" x="883" y="-99.8" font-family="Times,serif" font-size="14.00">WidgetsModule</text>
</g>
<!-- WidgetsModule&#45;&gt;PrivateModule -->
<g id="edge9" class="edge">
<title>WidgetsModule&#45;&gt;PrivateModule</title>
<path fill="none" stroke="black" d="M883,-122.01C883,-138.05 883,-159 883,-159 883,-159 797.9,-159 797.9,-159"/>
<polygon fill="black" stroke="black" points="797.9,-155.5 787.9,-159 797.9,-162.5 797.9,-155.5"/>
</g>
</g>
</svg>
