<?xml version="1.0" encoding="UTF-8" standalone="no"?>
<!DOCTYPE svg PUBLIC "-//W3C//DTD SVG 1.1//EN"
 "http://www.w3.org/Graphics/SVG/1.1/DTD/svg11.dtd">
<!-- Generated by graphviz version 2.47.0 (20210316.0004)
 -->
<!-- Title: dependencies Pages: 1 -->
<svg width="1213pt" height="284pt"
 viewBox="0.00 0.00 1213.00 284.00" xmlns="http://www.w3.org/2000/svg" xmlns:xlink="http://www.w3.org/1999/xlink">
<g id="graph0" class="graph" transform="scale(1 1) rotate(0) translate(4 280)">
<title>dependencies</title>
<polygon fill="white" stroke="transparent" points="-4,4 -4,-280 1209,-280 1209,4 -4,4"/>
<text text-anchor="start" x="581.51" y="-42.4" font-family="sans-serif" font-weight="bold" font-size="14.00">Legend</text>
<polygon fill="#ffffb3" stroke="transparent" points="368.5,-10 368.5,-30 388.5,-30 388.5,-10 368.5,-10"/>
<text text-anchor="start" x="392.13" y="-15.4" font-family="sans-serif" font-size="14.00"> &#160;Declarations</text>
<polygon fill="#8dd3c7" stroke="transparent" points="481.5,-10 481.5,-30 501.5,-30 501.5,-10 481.5,-10"/>
<text text-anchor="start" x="505.23" y="-15.4" font-family="sans-serif" font-size="14.00"> &#160;Module</text>
<polygon fill="#80b1d3" stroke="transparent" points="567.5,-10 567.5,-30 587.5,-30 587.5,-10 567.5,-10"/>
<text text-anchor="start" x="591.28" y="-15.4" font-family="sans-serif" font-size="14.00"> &#160;Bootstrap</text>
<polygon fill="#fdb462" stroke="transparent" points="664.5,-10 664.5,-30 684.5,-30 684.5,-10 664.5,-10"/>
<text text-anchor="start" x="688.17" y="-15.4" font-family="sans-serif" font-size="14.00"> &#160;Providers</text>
<polygon fill="#fb8072" stroke="transparent" points="760.5,-10 760.5,-30 780.5,-30 780.5,-10 760.5,-10"/>
<text text-anchor="start" x="784.23" y="-15.4" font-family="sans-serif" font-size="14.00"> &#160;Exports</text>
<g id="clust1" class="cluster">
<title>cluster_WidgetsModule</title>
<polygon fill="none" stroke="black" stroke-dasharray="1,5" points="8,-70 8,-268 1197,-268 1197,-70 8,-70"/>
</g>
<g id="clust11" class="cluster">
<title>cluster_WidgetsModule_exports</title>
<polygon fill="none" stroke="black" points="78,-208 78,-260 1127,-260 1127,-208 78,-208"/>
</g>
<g id="clust2" class="cluster">
<title>cluster_WidgetsModule_declarations</title>
<polygon fill="none" stroke="black" points="16,-78 16,-130 1189,-130 1189,-78 16,-78"/>
</g>
<!-- SearchAuthorComponent -->
<g id="node1" class="node">
<title>SearchAuthorComponent</title>
<polygon fill="#ffffb3" stroke="black" points="1180.58,-122 1021.42,-122 1021.42,-86 1180.58,-86 1180.58,-122"/>
<text text-anchor="middle" x="1101" y="-99.8" font-family="Times,serif" font-size="14.00">SearchAuthorComponent</text>
</g>
<!-- WidgetsModule -->
<g id="node8" class="node">
<title>WidgetsModule</title>
<polygon fill="#8dd3c7" stroke="black" points="642.2,-187 639.2,-191 618.2,-191 615.2,-187 535.8,-187 535.8,-151 642.2,-151 642.2,-187"/>
<text text-anchor="middle" x="589" y="-164.8" font-family="Times,serif" font-size="14.00">WidgetsModule</text>
</g>
<!-- SearchAuthorComponent&#45;&gt;WidgetsModule -->
<g id="edge1" class="edge">
<title>SearchAuthorComponent&#45;&gt;WidgetsModule</title>
<path fill="none" stroke="black" d="M1070.38,-122.11C1070.38,-141.34 1070.38,-169 1070.38,-169 1070.38,-169 652.35,-169 652.35,-169"/>
<polygon fill="black" stroke="black" points="652.35,-165.5 642.35,-169 652.35,-172.5 652.35,-165.5"/>
</g>
<!-- SearchBookComponent -->
<g id="node2" class="node">
<title>SearchBookComponent</title>
<polygon fill="#ffffb3" stroke="black" points="1003.76,-122 854.24,-122 854.24,-86 1003.76,-86 1003.76,-122"/>
<text text-anchor="middle" x="929" y="-99.8" font-family="Times,serif" font-size="14.00">SearchBookComponent</text>
</g>
<!-- SearchBookComponent&#45;&gt;WidgetsModule -->
<g id="edge2" class="edge">
<title>SearchBookComponent&#45;&gt;WidgetsModule</title>
<path fill="none" stroke="black" d="M896.38,-122.02C896.38,-139.37 896.38,-163 896.38,-163 896.38,-163 652.19,-163 652.19,-163"/>
<polygon fill="black" stroke="black" points="652.19,-159.5 642.19,-163 652.19,-166.5 652.19,-159.5"/>
</g>
<!-- SelectAuthorComponent -->
<g id="node3" class="node">
<title>SelectAuthorComponent</title>
<polygon fill="#ffffb3" stroke="black" points="836.7,-122 681.3,-122 681.3,-86 836.7,-86 836.7,-122"/>
<text text-anchor="middle" x="759" y="-99.8" font-family="Times,serif" font-size="14.00">SelectAuthorComponent</text>
</g>
<!-- SelectAuthorComponent&#45;&gt;WidgetsModule -->
<g id="edge3" class="edge">
<title>SelectAuthorComponent&#45;&gt;WidgetsModule</title>
<path fill="none" stroke="black" d="M724.38,-122.24C724.38,-137.57 724.38,-157 724.38,-157 724.38,-157 652.12,-157 652.12,-157"/>
<polygon fill="black" stroke="black" points="652.12,-153.5 642.12,-157 652.12,-160.5 652.12,-153.5"/>
</g>
<!-- SelectGenreComponent -->
<g id="node4" class="node">
<title>SelectGenreComponent</title>
<polygon fill="#ffffb3" stroke="black" points="663.74,-122 514.26,-122 514.26,-86 663.74,-86 663.74,-122"/>
<text text-anchor="middle" x="589" y="-99.8" font-family="Times,serif" font-size="14.00">SelectGenreComponent</text>
</g>
<!-- SelectGenreComponent&#45;&gt;WidgetsModule -->
<g id="edge4" class="edge">
<title>SelectGenreComponent&#45;&gt;WidgetsModule</title>
<path fill="none" stroke="black" d="M589,-122.11C589,-122.11 589,-140.99 589,-140.99"/>
<polygon fill="black" stroke="black" points="585.5,-140.99 589,-150.99 592.5,-140.99 585.5,-140.99"/>
</g>
<!-- SelectSagaComponent -->
<g id="node5" class="node">
<title>SelectSagaComponent</title>
<polygon fill="#ffffb3" stroke="black" points="496.25,-122 353.75,-122 353.75,-86 496.25,-86 496.25,-122"/>
<text text-anchor="middle" x="425" y="-99.8" font-family="Times,serif" font-size="14.00">SelectSagaComponent</text>
</g>
<!-- SelectSagaComponent&#45;&gt;WidgetsModule -->
<g id="edge5" class="edge">
<title>SelectSagaComponent&#45;&gt;WidgetsModule</title>
<path fill="none" stroke="black" d="M466.88,-122.24C466.88,-137.57 466.88,-157 466.88,-157 466.88,-157 525.79,-157 525.79,-157"/>
<polygon fill="black" stroke="black" points="525.79,-160.5 535.79,-157 525.79,-153.5 525.79,-160.5"/>
</g>
<!-- TableBookListComponent -->
<g id="node6" class="node">
<title>TableBookListComponent</title>
<polygon fill="#ffffb3" stroke="black" points="335.82,-122 170.18,-122 170.18,-86 335.82,-86 335.82,-122"/>
<text text-anchor="middle" x="253" y="-99.8" font-family="Times,serif" font-size="14.00">TableBookListComponent</text>
</g>
<!-- TableBookListComponent&#45;&gt;WidgetsModule -->
<g id="edge6" class="edge">
<title>TableBookListComponent&#45;&gt;WidgetsModule</title>
<path fill="none" stroke="black" d="M304.27,-122.02C304.27,-139.37 304.27,-163 304.27,-163 304.27,-163 525.78,-163 525.78,-163"/>
<polygon fill="black" stroke="black" points="525.78,-166.5 535.78,-163 525.78,-159.5 525.78,-166.5"/>
</g>
<!-- WidgetsComponent -->
<g id="node7" class="node">
<title>WidgetsComponent</title>
<polygon fill="#ffffb3" stroke="black" points="151.99,-122 24.01,-122 24.01,-86 151.99,-86 151.99,-122"/>
<text text-anchor="middle" x="88" y="-99.8" font-family="Times,serif" font-size="14.00">WidgetsComponent</text>
</g>
<!-- WidgetsComponent&#45;&gt;WidgetsModule -->
<g id="edge7" class="edge">
<title>WidgetsComponent&#45;&gt;WidgetsModule</title>
<path fill="none" stroke="black" d="M118.79,-122.11C118.79,-141.34 118.79,-169 118.79,-169 118.79,-169 525.52,-169 525.52,-169"/>
<polygon fill="black" stroke="black" points="525.52,-172.5 535.52,-169 525.52,-165.5 525.52,-172.5"/>
</g>
<!-- SearchAuthorComponent  -->
<g id="node9" class="node">
<title>SearchAuthorComponent </title>
<polygon fill="#fb8072" stroke="black" points="1119.08,-252 956.92,-252 956.92,-216 1119.08,-216 1119.08,-252"/>
<text text-anchor="middle" x="1038" y="-229.8" font-family="Times,serif" font-size="14.00">SearchAuthorComponent </text>
</g>
<!-- WidgetsModule&#45;&gt;SearchAuthorComponent  -->
<g id="edge8" class="edge">
<title>WidgetsModule&#45;&gt;SearchAuthorComponent </title>
<path fill="none" stroke="black" stroke-dasharray="5,2" d="M642.18,-175C749.17,-175 980.29,-175 980.29,-175 980.29,-175 980.29,-205.98 980.29,-205.98"/>
<polygon fill="black" stroke="black" points="976.79,-205.98 980.29,-215.98 983.79,-205.98 976.79,-205.98"/>
</g>
<!-- SearchBookComponent  -->
<g id="node10" class="node">
<title>SearchBookComponent </title>
<polygon fill="#fb8072" stroke="black" points="938.76,-252 785.24,-252 785.24,-216 938.76,-216 938.76,-252"/>
<text text-anchor="middle" x="862" y="-229.8" font-family="Times,serif" font-size="14.00">SearchBookComponent </text>
</g>
<!-- WidgetsModule&#45;&gt;SearchBookComponent  -->
<g id="edge9" class="edge">
<title>WidgetsModule&#45;&gt;SearchBookComponent </title>
<path fill="none" stroke="black" stroke-dasharray="5,2" d="M642.17,-181C707.84,-181 810.99,-181 810.99,-181 810.99,-181 810.99,-205.76 810.99,-205.76"/>
<polygon fill="black" stroke="black" points="807.49,-205.76 810.99,-215.76 814.49,-205.76 807.49,-205.76"/>
</g>
<!-- SelectAuthorComponent  -->
<g id="node11" class="node">
<title>SelectAuthorComponent </title>
<polygon fill="#fb8072" stroke="black" points="767.2,-252 608.8,-252 608.8,-216 767.2,-216 767.2,-252"/>
<text text-anchor="middle" x="688" y="-229.8" font-family="Times,serif" font-size="14.00">SelectAuthorComponent </text>
</g>
<!-- WidgetsModule&#45;&gt;SelectAuthorComponent  -->
<g id="edge10" class="edge">
<title>WidgetsModule&#45;&gt;SelectAuthorComponent </title>
<path fill="none" stroke="black" stroke-dasharray="5,2" d="M625.38,-187.11C625.38,-187.11 625.38,-205.99 625.38,-205.99"/>
<polygon fill="black" stroke="black" points="621.88,-205.99 625.38,-215.99 628.88,-205.99 621.88,-205.99"/>
</g>
<!-- SelectGenreComponent  -->
<g id="node12" class="node">
<title>SelectGenreComponent </title>
<polygon fill="#fb8072" stroke="black" points="590.74,-252 437.26,-252 437.26,-216 590.74,-216 590.74,-252"/>
<text text-anchor="middle" x="514" y="-229.8" font-family="Times,serif" font-size="14.00">SelectGenreComponent </text>
</g>
<!-- WidgetsModule&#45;&gt;SelectGenreComponent  -->
<g id="edge11" class="edge">
<title>WidgetsModule&#45;&gt;SelectGenreComponent </title>
<path fill="none" stroke="black" stroke-dasharray="5,2" d="M563.26,-187.11C563.26,-187.11 563.26,-205.99 563.26,-205.99"/>
<polygon fill="black" stroke="black" points="559.76,-205.99 563.26,-215.99 566.76,-205.99 559.76,-205.99"/>
</g>
<!-- SelectSagaComponent  -->
<g id="node13" class="node">
<title>SelectSagaComponent </title>
<polygon fill="#fb8072" stroke="black" points="419.25,-252 272.75,-252 272.75,-216 419.25,-216 419.25,-252"/>
<text text-anchor="middle" x="346" y="-229.8" font-family="Times,serif" font-size="14.00">SelectSagaComponent </text>
</g>
<!-- WidgetsModule&#45;&gt;SelectSagaComponent  -->
<g id="edge12" class="edge">
<title>WidgetsModule&#45;&gt;SelectSagaComponent </title>
<path fill="none" stroke="black" stroke-dasharray="5,2" d="M535.76,-181C475.73,-181 386.38,-181 386.38,-181 386.38,-181 386.38,-205.76 386.38,-205.76"/>
<polygon fill="black" stroke="black" points="382.88,-205.76 386.38,-215.76 389.88,-205.76 382.88,-205.76"/>
</g>
<!-- TableBookListComponent  -->
<g id="node14" class="node">
<title>TableBookListComponent </title>
<polygon fill="#fb8072" stroke="black" points="254.32,-252 85.68,-252 85.68,-216 254.32,-216 254.32,-252"/>
<text text-anchor="middle" x="170" y="-229.8" font-family="Times,serif" font-size="14.00">TableBookListComponent </text>
</g>
<!-- WidgetsModule&#45;&gt;TableBookListComponent  -->
<g id="edge13" class="edge">
<title>WidgetsModule&#45;&gt;TableBookListComponent </title>
<path fill="none" stroke="black" stroke-dasharray="5,2" d="M535.84,-175C432.02,-175 212.38,-175 212.38,-175 212.38,-175 212.38,-205.98 212.38,-205.98"/>
<polygon fill="black" stroke="black" points="208.88,-205.98 212.38,-215.98 215.88,-205.98 208.88,-205.98"/>
</g>
</g>
</svg>
